<?xml version="1.0" encoding="UTF-8"?>
<svg id="Camada_2" data-name="Camada 2" xmlns="http://www.w3.org/2000/svg" viewBox="0 0 856.05 173.53">
  <defs>
    <style>
      .cls-1 {
        fill: #f8f8f8;
      }
    </style>
  </defs>
  <g id="Camada_1-2" data-name="Camada 1">
    <g>
      <g>
        <path class="cls-1" d="M131.97,136.78l19.34,18.48c.86.82.96,2.1.67,2.82-.24.59-.88,1.7-2.26,1.7l-94.83-.45c-11.02-.05-20.5-11.38-20.54-22.01l-.32-75.26-34.03-.26L52.33,8.24l32.16,33.6,19.04,19.92-34.62.41.09,65.15,53.41.69c3.94,1,7.17,5.81,9.56,8.77Z"/>
        <path class="cls-1" d="M187.73,160.63l-50.94-52.17,34.45-.29-.27-66.48-55.27-.07-27.83-27.77c-.89-.79-1.18-1.85-1.08-2.52.17-1.09,1.53-2.1,3.26-2.09l96.33.59c10.89.07,19.45,12.18,19.47,22.04l.17,76.37,33.74.17-52.03,52.22Z"/>
        <path class="cls-1" d="M277.76,170.8c-2.89.9-5.47.4-8.59.4V.28s8.6-.28,8.6-.28v170.8Z"/>
      </g>
      <g>
        <path class="cls-1" d="M340.32,151.59l-16.72.22-.08,20.31-15.76.02v-72.88s31.31.16,31.31.16c14.82.08,25.35,12.75,24.61,27.31-.08,13.3-9.63,24.67-23.36,24.85ZM339.06,136.35c6.2-.91,8.89-6.16,8.61-11.53-.24-4.65-3.31-9.96-8.8-10.06l-15.39-.27.03,22.15,15.55-.3Z"/>
        <path class="cls-1" d="M748.51,167.8c-1.66,1.46-3.35,3.27-5.72,4.15-10.89,4.05-22.84-.14-28.72-10.42-5.7-9.96-5.67-22.95.63-32.53,7.75-11.8,23.55-14.71,34.25-5.02l.35-26.4,14.43.02-.06,74.51-14.29.07c-.22-1.04.27-2.04-.88-4.37ZM744.17,156.96c6.76-5.46,7.02-15.59,1.01-21.4-3.88-3.76-9.82-4.07-14.42-1.41-3.74,2.17-6.2,6.92-6.06,11.99s2.54,9.45,6.37,11.6,9.13,2.42,13.1-.78Z"/>
        <polygon class="cls-1" points="588.78 99.41 605.96 99.62 579.47 172.09 559.96 172.2 533.32 99.31 550.67 99.17 569.74 152.76 588.78 99.41"/>
        <path class="cls-1" d="M495.49,172.21l-.84-4.56c-6.03,6.14-14.96,7.38-23.13,4.17-10.04-3.94-15.57-14.03-15.87-24.8-.28-10.19,3.63-19.87,12.24-25.23,8.66-5.39,19.51-4.93,26.73,2.01.81-1.69.62-2.77.65-4.35l14.45-.04v52.7s-14.24.11-14.24.11ZM495.44,147.18c.66-8.05-4.91-14.39-11.89-14.76-7.71-.41-13.29,5.99-13.13,13.73s5.1,13.08,12.38,13.24c6.36.14,12.05-5,12.64-12.21Z"/>
        <path class="cls-1" d="M418.68,171.96l-14.32.22c-.29-1.11-.03-2.17-1.16-3.91-11.04,9.34-27.56,5.74-34.86-7.09-4.62-8.12-5.15-18.19-1.81-26.98,4.06-10.69,14.38-17.08,25.62-15.86,4.44.48,8.08,2.47,11.26,5.43.91-1.61.79-2.68.64-4.33l14.61-.02.02,52.54ZM404.33,145.01c-.6-8.07-6.58-13.17-13.71-12.5-6.81.64-11.41,6.35-11.31,13.7s5.83,13.37,12.97,13.16,12.62-6.59,12.05-14.36Z"/>
        <path class="cls-1" d="M807.25,154.08l12.02,6.49c-4.41,8.27-12.83,12.37-21.86,12.9-16.1.95-28.54-11.29-28.61-27.33-.05-11,5.23-20.73,14.78-25.29,9.69-4.62,21.74-3.35,29.63,4.43,6.95,6.86,8.76,16.64,7.28,25.48l-36.18.09c.78,5.46,5.29,8.26,9.42,8.98,5.21.9,9.98-.74,13.52-5.76ZM806.14,140.12c-1.26-6.39-6.29-8.92-11.56-8.79-4.94.12-9.49,3.16-10.47,9.02l22.03-.23Z"/>
        <path class="cls-1" d="M637.41,154.16l12.17,6.32c-4.94,9.29-14.54,13.43-24.79,13.01-15.45-.63-26.34-13.58-25.61-28.99.52-11.01,6.6-20.37,16.2-24.26,10.3-4.17,22.08-1.88,29.46,6.64,5.73,6.62,7.32,15.25,6.19,23.86l-36.6.15c1.38,5.08,5.49,8.25,9.28,8.92,5.43.96,10.04-.4,13.69-5.65ZM636.74,140.14c-1.36-6.35-6.47-8.87-11.49-8.79s-9.7,3.42-10.71,8.95l22.19-.16Z"/>
        <path class="cls-1" d="M670.99,141.6l-.14,30.54-14.67.05-.02-52.72,14.17-.16.84,4.55c7.24-6.65,18.31-7.83,26.33-1.79,5.44,4.1,7.58,10.72,7.57,17.36l-.06,32.72h-14.48s-.4-32.56-.4-32.56c-.06-5.23-5.7-7.91-10.09-7.44-4.66.5-9.02,3.91-9.05,9.47Z"/>
        <path class="cls-1" d="M439.93,172.06l-14.58.04v-52.68s14.65-.05,14.65-.05c.04,1.59-.48,3.16.73,5.31,3.62-4.71,8.82-6.6,15.17-5.89l.06,15.17c-4.36-.69-7.79-.31-11.02,1.87-2.7,1.82-4.86,5.37-4.88,9.47l-.13,26.75Z"/>
        <path class="cls-1" d="M840.16,172.01l-14.45.07-.06-52.65,14.47-.04c.12,1.84-.34,3.2.54,5.56,4.03-4.73,9.51-7.04,15.39-5.96l-.14,14.74c-3.94-.19-7.86-.15-11.09,2.3-2.49,1.89-4.5,5.58-4.52,9.46l-.14,26.53Z"/>
        <g>
          <path class="cls-1" d="M307.77.73h20.29v71.72h-20.29V.73Z"/>
          <path class="cls-1" d="M400.7,40.7v31.76h-19.47v-28.59c0-7.99-3.48-11.37-9.12-11.37-6.25,0-11.07,3.89-11.07,13.12v26.85h-19.47V16.92h18.55v6.05c4.41-4.61,10.66-6.97,17.62-6.97,13.01,0,22.95,7.48,22.95,24.69Z"/>
          <path class="cls-1" d="M408.49,67.64l5.84-13.32c5.12,3.18,12.6,5.12,19.37,5.12s8.71-1.43,8.71-3.79c0-7.48-32.79,1.02-32.79-21.21,0-10.45,9.63-18.44,27.05-18.44,7.79,0,16.39,1.64,21.93,4.71l-5.84,13.22c-5.53-3.07-11.07-4.1-15.98-4.1-6.56,0-8.91,1.84-8.91,3.89,0,7.68,32.69-.61,32.69,21.42,0,10.25-9.43,18.24-27.46,18.24-9.43,0-19.16-2.36-24.59-5.74Z"/>
          <path class="cls-1" d="M507.27,70.2c-3.38,2.15-8.4,3.18-13.53,3.18-14.24,0-22.54-6.97-22.54-21.21v-18.65h-8.09v-14.55h8.09V4.53h19.47v14.45h12.71v14.55h-12.71v18.44c0,4.1,2.36,6.35,5.84,6.35,2.15,0,4.3-.61,5.94-1.74l4.82,13.63Z"/>
          <path class="cls-1" d="M566.8,41.62v30.84h-18.14v-7.17c-2.77,5.33-8.3,8.09-16.39,8.09-13.32,0-20.7-7.48-20.7-17.11,0-10.25,7.48-16.6,24.69-16.6h11.07c-.31-5.64-4.1-8.81-11.78-8.81-5.33,0-11.27,1.84-15.06,4.82l-6.56-13.22c6.35-4.2,15.78-6.46,24.49-6.46,18.03,0,28.38,7.99,28.38,25.62ZM547.33,54.63v-4.82h-8.4c-6.25,0-8.5,2.25-8.5,5.64s2.66,5.64,7.27,5.64c4.3,0,8.09-2.05,9.63-6.46Z"/>
          <path class="cls-1" d="M639.65,16.92v45.39c0,21.01-11.89,30.94-32.58,30.94-10.66,0-20.8-2.46-27.56-7.27l7.07-13.63c4.61,3.69,12.19,5.94,18.75,5.94,10.45,0,14.86-4.71,14.86-13.42v-1.84c-3.79,4.41-9.43,6.56-16.5,6.56-14.75,0-27.26-10.45-27.26-26.85s12.5-26.74,27.26-26.74c7.68,0,13.63,2.46,17.42,7.68v-6.76h18.55ZM620.38,42.74c0-6.76-5.12-11.27-12.09-11.27s-12.19,4.51-12.19,11.27,5.23,11.37,12.19,11.37,12.09-4.61,12.09-11.37Z"/>
          <path class="cls-1" d="M689.34,16v17.52c-1.74-.21-2.97-.31-4.41-.31-7.89,0-13.32,4-13.32,13.73v25.51h-19.47V16.92h18.55v6.66c4-5.02,10.45-7.58,18.65-7.58Z"/>
          <path class="cls-1" d="M748.98,41.62v30.84h-18.14v-7.17c-2.77,5.33-8.3,8.09-16.39,8.09-13.32,0-20.7-7.48-20.7-17.11,0-10.25,7.48-16.6,24.69-16.6h11.07c-.31-5.64-4.1-8.81-11.78-8.81-5.33,0-11.27,1.84-15.06,4.82l-6.56-13.22c6.35-4.2,15.78-6.46,24.49-6.46,18.03,0,28.38,7.99,28.38,25.62ZM729.51,54.63v-4.82h-8.4c-6.25,0-8.5,2.25-8.5,5.64s2.66,5.64,7.27,5.64c4.3,0,8.09-2.05,9.63-6.46Z"/>
          <path class="cls-1" d="M856.05,40.7v31.76h-19.47v-28.59c0-7.99-3.28-11.37-8.4-11.37-5.64,0-9.74,3.79-9.74,12.4v27.56h-19.47v-28.59c0-7.99-3.18-11.37-8.4-11.37-5.74,0-9.84,3.79-9.84,12.4v27.56h-19.47V16.92h18.55v5.84c4.2-4.51,10.04-6.76,16.6-6.76,7.58,0,14.04,2.77,17.93,8.71,4.41-5.53,11.27-8.71,19.26-8.71,12.91,0,22.44,7.48,22.44,24.69Z"/>
        </g>
      </g>
    </g>
  </g>
</svg>